<?xml version="1.0" encoding="UTF-8" standalone="no"?>
<!-- Created with Inkscape (http://www.inkscape.org/) -->
<svg xmlns:rdf="http://www.w3.org/1999/02/22-rdf-syntax-ns#" xmlns="http://www.w3.org/2000/svg" xmlns:cc="http://creativecommons.org/ns#" xmlns:dc="http://purl.org/dc/elements/1.1/" xmlns:svg="http://www.w3.org/2000/svg" xmlns:inkscape="http://www.inkscape.org/namespaces/inkscape" xmlns:sodipodi="http://sodipodi.sourceforge.net/DTD/sodipodi-0.dtd" xmlns:ns1="http://sozi.baierouge.fr" xmlns:xlink="http://www.w3.org/1999/xlink" id="svg3135" viewBox="0 0 126.29 195.99" version="1.1" inkscape:version="0.91 r13725">
  <defs id="defs3137">
    <clipPath id="clipPath144">
      <path id="path146" d="m0 612h792v-612h-792v612z"/>
    </clipPath>
  </defs>
  <g id="layer1" transform="translate(-653.21 -424.37)">
    <g id="g140" transform="matrix(1.25 0 0 -1.25 75.707 797.99)">
      <g id="g142" clip-path="url(#clipPath144)">
        <g id="g148" transform="translate(557.67 192.31)">
          <path id="path150" style="fill:#878786" d="m0 0c-0.075-0.942-0.136-1.7-0.169-2.21-0.201-3.127-0.815-12.642-2.755-17.126-2.169-5.016-0.772-11.404-0.712-11.674l0.05-0.174c0.39-1.097 0.252-2.365-0.398-3.667-1.01-2.021-4.206-5.882-14.26-9.024-12.502-3.906-15.86 0.089-15.861 0.089-0.263 0.379-26.282 38.038-29.846 55.856l-0.049 0.185c-2.045 6.075-4.176 13.41-4.054 14.666 0.131 1.327-0.053 3.594-0.288 6.464-0.362 4.443-1.037 12.714 0.486 14.374 0.107 0.115 0.156 0.099 0.215 0.1 1.545 0 2.826-0.553 3.912-1.693 4.458-4.671 3.899-16.774 3.893-16.896l-0.013-0.255 0.072-0.244c0.137-0.468 3.165-10.497 9.9-11.28-0.459-3.886-0.974-5.714-0.984-5.752l1.439-0.421 1.439-0.423c0.101 0.344 2.478 8.671 1.644 28.196-0.274 6.402-1.023 13.16-1.683 19.123-1.068 9.63-2.396 21.615 0.119 22.377 0.541 0.162 0.987 0.113 1.455-0.162 2.747-1.621 4.431-9.5 5.24-13.287l0.527-2.443c2.557-11.885 6.46-28.356 10.809-34.156l2.4 1.801c-2.692 3.589-5.354 12.432-7.358 20.349 2.533 0.655 4.71 0.46 6.471-0.605 2.184-1.323 3.352-3.741 3.716-5.564 0.716-3.579 4.312-16.323 4.465-16.863l2.887 0.815c-0.033 0.117-2.948 10.448-4.079 15.166 6.158 0.426 7.699-5.668 7.857-6.392 0.64-2.943 4.878-14.461 5.059-14.95l2.814 1.037c-0.911 2.474-2.359 6.495-3.465 9.767 3.444-0.502 5.309-4.056 7.28-8.567 0.545-1.248 1.059-2.427 1.613-3.359 1.822-3.07 0.61-18.205 0.212-23.178m2.368 24.709c-0.459 0.772-0.937 1.869-1.445 3.029-1.862 4.265-4.622 10.561-11.028 10.436-0.223 0.724-0.391 1.319-0.476 1.713-0.8 3.676-4.126 9.553-11.526 8.703-0.599 1.752-1.914 4.378-4.699 6.063-2.471 1.497-5.415 1.805-8.743 0.949-0.972 4.03-1.737 7.583-2.199 9.728l-0.526 2.439c-1.401 6.554-3.069 13.13-6.65 15.244-1.182 0.697-2.513 0.852-3.848 0.449-4.903-1.484-3.84-11.07-2.233-25.579 0.656-5.915 1.399-12.619 1.668-18.921 0.342-8.006 0.126-14.087-0.239-18.455-4.306 0.599-6.811 7.542-7.252 8.888 0.071 2.001 0.256 13.614-4.727 18.839-1.662 1.743-3.709 2.625-6.085 2.625h-0.038c-0.922-0.004-1.748-0.374-2.388-1.072-2.233-2.432-1.914-8.702-1.266-16.646 0.204-2.503 0.397-4.867 0.292-5.925-0.242-2.45 3.087-12.615 4.166-15.828 3.754-18.459 29.22-55.321 30.309-56.891 0.298-0.425 2.428-3.099 8.693-3.099 2.686 0 6.134 0.493 10.522 1.864 10.557 3.299 14.555 7.556 16.049 10.547 0.991 1.982 1.195 4.076 0.577 5.91-0.137 0.679-1.113 5.9 0.554 9.754 1.924 4.448 2.631 12.474 2.995 18.124 0.032 0.499 0.092 1.241 0.165 2.163 0.876 10.938 1.407 21.531-0.622 24.949"/>
        </g>
        <g id="g152" transform="translate(524.04 297.3)">
          <path id="path154" style="fill:#878786" d="m0 0h-15.344l2.893-2.893-8.459-8.46 9.428-9.428 8.46 8.459 3.022-3.022v15.344z"/>
        </g>
        <g id="g156" transform="translate(463.61 236.87)">
          <path id="path158" style="fill:#878786" d="m0 0 15.344 0.001-2.893 2.893 8.459 8.459-9.428 9.428-8.46-8.459-3.021 3.022-0.001-15.344z"/>
        </g>
      </g>
    </g>
  </g>
  <metadata>
    <rdf:RDF>
      <cc:Work>
        <dc:format>image/svg+xml</dc:format>
        <dc:type rdf:resource="http://purl.org/dc/dcmitype/StillImage"/>
        <cc:license rdf:resource="http://creativecommons.org/licenses/publicdomain/"/>
        <dc:publisher>
          <cc:Agent rdf:about="http://openclipart.org/">
            <dc:title>Openclipart</dc:title>
          </cc:Agent>
        </dc:publisher>
        <dc:title>Multitouch - Pinch zoom in</dc:title>
        <dc:date>2013-02-25T20:27:03</dc:date>
        <dc:description>A small set of multitoutch wireframes by Jonathan Averstedt. Used with permission, original file available here: http://dribbble.com/shots/817543-Freebie-Hands</dc:description>
        <dc:source>https://openclipart.org/detail/175319/multitouch---pinch-zoom-in-by-williamtheaker-175319</dc:source>
        <dc:creator>
          <cc:Agent>
            <dc:title>williamtheaker</dc:title>
          </cc:Agent>
        </dc:creator>
        <dc:subject>
          <rdf:Bag>
            <rdf:li>android</rdf:li>
            <rdf:li>gesture</rdf:li>
            <rdf:li>iphone</rdf:li>
            <rdf:li>meego</rdf:li>
            <rdf:li>multitouch</rdf:li>
            <rdf:li>pinch</rdf:li>
            <rdf:li>replicant</rdf:li>
            <rdf:li>smartphone</rdf:li>
            <rdf:li>tablet</rdf:li>
            <rdf:li>zoom</rdf:li>
          </rdf:Bag>
        </dc:subject>
      </cc:Work>
      <cc:License rdf:about="http://creativecommons.org/licenses/publicdomain/">
        <cc:permits rdf:resource="http://creativecommons.org/ns#Reproduction"/>
        <cc:permits rdf:resource="http://creativecommons.org/ns#Distribution"/>
        <cc:permits rdf:resource="http://creativecommons.org/ns#DerivativeWorks"/>
      </cc:License>
    </rdf:RDF>
  </metadata>
</svg>
